<svg width="20" height="18" viewBox="0 0 20 18" fill="none" xmlns="http://www.w3.org/2000/svg">
<path d="M10.3799 14.5283L8.52287 10.0394C8.52287 10.0394 8.50216 9.99264 8.48145 9.9726L10.373 14.5483C10.373 14.5483 10.3937 14.6018 10.4075 14.6218C10.4075 14.5884 10.3937 14.5617 10.3799 14.5283ZM9.55839 5.91121C9.55839 5.91121 9.53768 5.85777 9.53077 5.83105C9.55148 5.93793 9.586 6.03813 9.62742 6.13833L10.7113 8.73681L9.55839 5.91121ZM10.7113 8.73681L11.3533 10.3066C11.3533 10.3066 11.374 10.3467 11.3947 10.3667L10.7113 8.73681Z" fill="#5C5C5C"/>
<path d="M19.6316 14.295C19.1552 15.3504 18.2785 16.172 17.167 16.5929L16.1936 16.967C13.9224 17.8353 11.3474 16.7866 10.4085 14.6223C10.4085 14.5889 10.3947 14.5622 10.3809 14.5288L8.52389 10.0399C8.52389 10.0399 8.50318 9.99314 8.48247 9.9731L6.9637 6.30583C6.70828 5.67792 6.60472 5.01661 6.65995 4.36866C7.05345 3.8209 7.80593 3.60047 8.50318 3.87434C8.98642 4.01462 9.3454 4.36866 9.49727 4.79617C9.42134 5.14353 9.43514 5.49088 9.53179 5.83156C9.5525 5.93843 9.58702 6.03863 9.62844 6.13883L10.7123 8.73731L11.3543 10.3071C11.3543 10.3071 11.375 10.3472 11.3957 10.3672L12.4451 12.8855C12.4451 12.8855 12.4589 12.9189 12.4658 12.939C12.8455 13.8408 13.7498 14.3885 14.6956 14.3885C14.9855 14.3885 15.2686 14.3351 15.5516 14.2349C15.5792 14.2349 15.6068 14.2215 15.6345 14.2082L15.7794 14.1414C16.3731 13.9076 16.8357 13.4667 17.0842 12.8922C17.3396 12.3177 17.3396 11.6898 17.098 11.1154L14.2607 4.32858C14.2607 4.32858 14.2331 4.26178 14.2261 4.24842C14.2192 4.24174 14.1916 4.18162 14.1916 4.17494C14.1433 4.08142 14.0881 3.9879 14.0259 3.90774C13.9086 2.4248 13.1423 1.08882 11.2024 0.0935187C11.5062 0.0333995 11.8099 0 12.1137 0C13.8879 0 15.5723 1.02871 16.2765 2.71204L19.6592 10.9083C19.6592 10.9083 19.673 10.9684 19.6799 10.9951C20.1217 12.0706 20.1079 13.2396 19.6316 14.295Z" fill="#5C5C5C"/>
<path d="M9.5591 5.91121C9.5591 5.91121 9.53839 5.85777 9.53149 5.83105C9.5522 5.93793 9.58672 6.03813 9.62814 6.13833L10.712 8.73681L9.5591 5.91121ZM9.5591 5.91121C9.5591 5.91121 9.53839 5.85777 9.53149 5.83105C9.5522 5.93793 9.58672 6.03813 9.62814 6.13833L10.712 8.73681L9.5591 5.91121ZM9.5591 5.91121C9.5591 5.91121 9.53839 5.85777 9.53149 5.83105C9.5522 5.93793 9.58672 6.03813 9.62814 6.13833L10.712 8.73681L9.5591 5.91121ZM9.5591 5.91121C9.5591 5.91121 9.53839 5.85777 9.53149 5.83105C9.5522 5.93793 9.58672 6.03813 9.62814 6.13833L10.712 8.73681L9.5591 5.91121ZM9.5591 5.91121C9.5591 5.91121 9.53839 5.85777 9.53149 5.83105C9.5522 5.93793 9.58672 6.03813 9.62814 6.13833L10.712 8.73681L9.5591 5.91121ZM8.10938 11.3754C8.10938 11.3754 8.10938 11.3887 8.10938 11.3954L9.47626 14.7086C9.47626 14.7086 9.49007 14.6953 9.49007 14.6886L8.11628 11.3754H8.10938ZM9.5591 5.91121C9.5591 5.91121 9.53839 5.85777 9.53149 5.83105C9.5522 5.93793 9.58672 6.03813 9.62814 6.13833L10.712 8.73681L9.5591 5.91121ZM9.5591 5.91121C9.5591 5.91121 9.53839 5.85777 9.53149 5.83105C9.5522 5.93793 9.58672 6.03813 9.62814 6.13833L10.712 8.73681L9.5591 5.91121ZM9.5591 5.91121C9.5591 5.91121 9.53839 5.85777 9.53149 5.83105C9.5522 5.93793 9.58672 6.03813 9.62814 6.13833L10.712 8.73681L9.5591 5.91121ZM9.5591 5.91121C9.5591 5.91121 9.53839 5.85777 9.53149 5.83105C9.5522 5.93793 9.58672 6.03813 9.62814 6.13833L10.712 8.73681L9.5591 5.91121ZM9.5591 5.91121C9.5591 5.91121 9.53839 5.85777 9.53149 5.83105C9.5522 5.93793 9.58672 6.03813 9.62814 6.13833L10.712 8.73681L9.5591 5.91121Z" fill="#606060"/>
<path d="M13.1411 4.24205C13.1894 5.70495 12.5405 7.36157 11.7949 9.01818L11.7328 8.87122L10.4418 5.71831C10.504 5.40435 10.497 5.0904 10.428 4.7898C10.3866 4.58941 10.3176 4.40237 10.2209 4.22201C10.145 4.07505 10.0621 3.94814 9.95858 3.8279C9.66863 3.46718 9.27513 3.19331 8.79879 3.05303C8.19129 2.81923 7.54927 2.83927 6.98318 3.06639C6.76918 3.14655 6.56898 3.26011 6.38949 3.40038C6.14096 3.58742 5.93386 3.82122 5.78889 4.09509C5.74746 4.15521 5.71295 4.21533 5.68533 4.28213C5.68533 4.28213 5.44141 4.86106 4.95357 6.01891C4.18728 7.86924 2.89633 10.9687 2.8342 11.089C2.57187 11.63 2.58568 12.3247 2.87562 12.946C3.17938 13.5806 3.72475 14.0481 4.33225 14.2085C4.99499 14.4556 5.60249 14.4556 6.12715 14.2218C7.17648 13.7609 7.67353 12.5185 8.10154 11.3962L9.46843 14.7095C8.98519 15.7716 8.10154 16.5598 6.95557 16.9606C5.60939 17.4282 4.04231 17.2946 2.70994 16.5798C0.2385 15.5845 -0.50017 13.781 0.321342 10.7282C0.75626 9.19186 3.57978 2.77915 3.61429 2.70567C4.06992 1.56341 4.97428 0.708382 6.16167 0.287548C6.68634 0.107191 7.24552 0.0136719 7.8116 0.0136719C8.09464 0.0136719 8.38459 0.0403915 8.66763 0.0871508C8.91615 0.12055 9.15777 0.180669 9.39249 0.254148C9.6065 0.314268 9.8136 0.394426 10.0138 0.481265C10.1035 0.521345 10.2002 0.568104 10.2899 0.614863C10.3107 0.634903 10.3383 0.648263 10.3728 0.661623C11.7949 1.29621 12.5681 2.11116 12.9202 3.04635C12.9892 3.23339 13.0375 3.42042 13.0789 3.60746C13.1135 3.81454 13.1411 4.02829 13.1411 4.24205Z" fill="#5C5C5C"/>
<path d="M9.48225 14.6892C9.48225 14.6892 9.47535 14.7026 9.46845 14.7092L8.10156 11.396C8.10156 11.396 8.10156 11.3827 8.10156 11.376L9.47535 14.6892H9.48225Z" fill="#5C5C5C"/>
<path d="M10.7113 8.7373L11.3533 10.3071C11.3533 10.3071 11.374 10.3472 11.3947 10.3672L10.7113 8.7373ZM10.3799 14.5288L8.52287 10.0399C8.52287 10.0399 8.50216 9.99313 8.48145 9.97309L10.373 14.5488C10.373 14.5488 10.3937 14.6023 10.4075 14.6223C10.4075 14.5889 10.3937 14.5622 10.3799 14.5288Z" fill="#606060"/>
</svg>
