<svg width="20" height="20" viewBox="0 0 20 20" fill="none" xmlns="http://www.w3.org/2000/svg">
<path fill-rule="evenodd" clip-rule="evenodd" d="M9.9991 0C9.34203 0 7.5 0.530487 7.5 1.18488V1.40625L9.9991 1.71875L7.5 2.03125V5C7.5 5.65439 9.34203 6.71434 9.9991 6.71434C10.6562 6.71434 12.3438 5.65439 12.3438 5V2.03125L9.9991 1.71875L12.3438 1.40625V1.18488C12.3438 0.530487 10.6562 0 9.9991 0ZM0.0854112 6.71445C-0.158622 7.32204 0.138121 8.0116 0.748206 8.25464L6.5483 10.5652C7.34675 10.8833 7.62754 11.8673 7.1164 12.556L3.00849 18.091C2.61793 18.6173 2.72967 19.3592 3.25808 19.7482C3.78649 20.1371 4.53147 20.0259 4.92203 19.4996L9.0013 14.0032C9.51706 13.3082 10.5559 13.294 11.0906 13.9745L15.4683 19.5453C15.8733 20.0607 16.621 20.1515 17.1385 19.7482C17.656 19.3449 17.7471 18.6001 17.3422 18.0848L12.9927 12.5499C12.4535 11.8637 12.7266 10.8541 13.5389 10.5304L19.2518 8.25464C19.8619 8.0116 20.1586 7.32204 19.9146 6.71445C19.6706 6.10685 18.9781 5.81133 18.3681 6.05436L9.9991 6.71434C10.1562 6.875 9.89666 6.6096 9.9991 6.71434L1.63194 6.05436C1.02185 5.81133 0.329446 6.10686 0.0854112 6.71445Z" fill="#5C5C5C"/>
</svg>
